<mxfile host="app.diagrams.net" agent="Mozilla/5.0 (X11; Linux x86_64) AppleWebKit/537.36 (KHTML, like Gecko) Chrome/133.0.0.0 Safari/537.36" version="26.2.14">
  <diagram name="Page-1" id="e7e014a7-5840-1c2e-5031-d8a46d1fe8dd">
    <mxGraphModel dx="1042" dy="543" grid="1" gridSize="10" guides="1" tooltips="1" connect="1" arrows="1" fold="1" page="1" pageScale="1" pageWidth="1169" pageHeight="826" background="none" math="0" shadow="0">
      <root>
        <mxCell id="0" />
        <mxCell id="1" parent="0" />
        <mxCell id="dvX5vBOQwHqYCFOMY8ba-52" value="" style="ellipse;html=1;shape=startState;fillColor=#000000;strokeColor=#ff0000;" vertex="1" parent="1">
          <mxGeometry x="520" y="100" width="30" height="30" as="geometry" />
        </mxCell>
        <mxCell id="dvX5vBOQwHqYCFOMY8ba-53" value="" style="edgeStyle=orthogonalEdgeStyle;html=1;verticalAlign=bottom;endArrow=open;endSize=8;strokeColor=#ff0000;rounded=0;entryX=0.5;entryY=0;entryDx=0;entryDy=0;" edge="1" source="dvX5vBOQwHqYCFOMY8ba-52" parent="1" target="dvX5vBOQwHqYCFOMY8ba-54">
          <mxGeometry relative="1" as="geometry">
            <mxPoint x="535" y="190" as="targetPoint" />
          </mxGeometry>
        </mxCell>
        <mxCell id="dvX5vBOQwHqYCFOMY8ba-54" value="Open App" style="rounded=1;whiteSpace=wrap;html=1;arcSize=40;fontColor=#000000;fillColor=#ffffc0;strokeColor=#ff0000;" vertex="1" parent="1">
          <mxGeometry x="475" y="190" width="120" height="40" as="geometry" />
        </mxCell>
        <mxCell id="dvX5vBOQwHqYCFOMY8ba-55" value="" style="edgeStyle=orthogonalEdgeStyle;html=1;verticalAlign=bottom;endArrow=open;endSize=8;strokeColor=#ff0000;rounded=0;entryX=0.5;entryY=0;entryDx=0;entryDy=0;" edge="1" source="dvX5vBOQwHqYCFOMY8ba-54" parent="1" target="dvX5vBOQwHqYCFOMY8ba-56">
          <mxGeometry relative="1" as="geometry">
            <mxPoint x="535" y="290" as="targetPoint" />
          </mxGeometry>
        </mxCell>
        <mxCell id="dvX5vBOQwHqYCFOMY8ba-56" value="Click &quot;Sign Up&quot; or &quot;Log In&quot;" style="rounded=1;whiteSpace=wrap;html=1;arcSize=40;fontColor=#000000;fillColor=#ffffc0;strokeColor=#ff0000;" vertex="1" parent="1">
          <mxGeometry x="475" y="290" width="120" height="40" as="geometry" />
        </mxCell>
        <mxCell id="dvX5vBOQwHqYCFOMY8ba-57" value="" style="edgeStyle=orthogonalEdgeStyle;html=1;verticalAlign=bottom;endArrow=open;endSize=8;strokeColor=#ff0000;rounded=0;entryX=0.5;entryY=0;entryDx=0;entryDy=0;" edge="1" source="dvX5vBOQwHqYCFOMY8ba-56" parent="1" target="dvX5vBOQwHqYCFOMY8ba-58">
          <mxGeometry relative="1" as="geometry">
            <mxPoint x="535" y="390" as="targetPoint" />
          </mxGeometry>
        </mxCell>
        <mxCell id="dvX5vBOQwHqYCFOMY8ba-58" value="Sign Up?" style="rhombus;whiteSpace=wrap;html=1;fontColor=#000000;fillColor=#ffffc0;strokeColor=#ff0000;" vertex="1" parent="1">
          <mxGeometry x="495" y="390" width="80" height="40" as="geometry" />
        </mxCell>
        <mxCell id="dvX5vBOQwHqYCFOMY8ba-59" value="no" style="edgeStyle=orthogonalEdgeStyle;html=1;align=left;verticalAlign=bottom;endArrow=open;endSize=8;strokeColor=#ff0000;rounded=0;entryX=0.5;entryY=0;entryDx=0;entryDy=0;" edge="1" source="dvX5vBOQwHqYCFOMY8ba-58" parent="1" target="dvX5vBOQwHqYCFOMY8ba-67">
          <mxGeometry x="-0.8947" relative="1" as="geometry">
            <mxPoint x="675" y="410" as="targetPoint" />
            <mxPoint as="offset" />
          </mxGeometry>
        </mxCell>
        <mxCell id="dvX5vBOQwHqYCFOMY8ba-60" value="yes" style="edgeStyle=orthogonalEdgeStyle;html=1;align=left;verticalAlign=top;endArrow=open;endSize=8;strokeColor=#ff0000;rounded=0;exitX=0;exitY=0.5;exitDx=0;exitDy=0;entryX=0.5;entryY=0;entryDx=0;entryDy=0;" edge="1" source="dvX5vBOQwHqYCFOMY8ba-58" parent="1" target="dvX5vBOQwHqYCFOMY8ba-61">
          <mxGeometry x="-0.7455" y="-20" relative="1" as="geometry">
            <mxPoint x="380" y="410" as="targetPoint" />
            <mxPoint as="offset" />
          </mxGeometry>
        </mxCell>
        <mxCell id="dvX5vBOQwHqYCFOMY8ba-61" value="Enter email, password" style="rounded=1;whiteSpace=wrap;html=1;arcSize=40;fontColor=#000000;fillColor=#ffffc0;strokeColor=#ff0000;" vertex="1" parent="1">
          <mxGeometry x="220" y="470" width="120" height="40" as="geometry" />
        </mxCell>
        <mxCell id="dvX5vBOQwHqYCFOMY8ba-62" value="" style="edgeStyle=orthogonalEdgeStyle;html=1;verticalAlign=bottom;endArrow=open;endSize=8;strokeColor=#ff0000;rounded=0;entryX=0.5;entryY=0;entryDx=0;entryDy=0;" edge="1" source="dvX5vBOQwHqYCFOMY8ba-61" parent="1" target="dvX5vBOQwHqYCFOMY8ba-65">
          <mxGeometry relative="1" as="geometry">
            <mxPoint x="535" y="580" as="targetPoint" />
          </mxGeometry>
        </mxCell>
        <mxCell id="dvX5vBOQwHqYCFOMY8ba-65" value="Submit" style="rounded=1;whiteSpace=wrap;html=1;arcSize=40;fontColor=#000000;fillColor=#ffffc0;strokeColor=#ff0000;" vertex="1" parent="1">
          <mxGeometry x="220" y="570" width="120" height="40" as="geometry" />
        </mxCell>
        <mxCell id="dvX5vBOQwHqYCFOMY8ba-66" value="" style="html=1;verticalAlign=bottom;endArrow=open;endSize=8;strokeColor=#ff0000;rounded=0;entryX=0.5;entryY=0;entryDx=0;entryDy=0;" edge="1" source="dvX5vBOQwHqYCFOMY8ba-65" parent="1" target="dvX5vBOQwHqYCFOMY8ba-71">
          <mxGeometry relative="1" as="geometry">
            <mxPoint x="310" y="660" as="targetPoint" />
          </mxGeometry>
        </mxCell>
        <mxCell id="dvX5vBOQwHqYCFOMY8ba-67" value="Enter email, password" style="rounded=1;whiteSpace=wrap;html=1;arcSize=40;fontColor=#000000;fillColor=#ffffc0;strokeColor=#ff0000;" vertex="1" parent="1">
          <mxGeometry x="740" y="470" width="120" height="40" as="geometry" />
        </mxCell>
        <mxCell id="dvX5vBOQwHqYCFOMY8ba-68" value="" style="edgeStyle=orthogonalEdgeStyle;html=1;verticalAlign=bottom;endArrow=open;endSize=8;strokeColor=#ff0000;rounded=0;entryX=0.5;entryY=0;entryDx=0;entryDy=0;" edge="1" source="dvX5vBOQwHqYCFOMY8ba-67" target="dvX5vBOQwHqYCFOMY8ba-69" parent="1">
          <mxGeometry relative="1" as="geometry">
            <mxPoint x="1025" y="580" as="targetPoint" />
          </mxGeometry>
        </mxCell>
        <mxCell id="dvX5vBOQwHqYCFOMY8ba-69" value="Submit" style="rounded=1;whiteSpace=wrap;html=1;arcSize=40;fontColor=#000000;fillColor=#ffffc0;strokeColor=#ff0000;" vertex="1" parent="1">
          <mxGeometry x="740" y="570" width="120" height="40" as="geometry" />
        </mxCell>
        <mxCell id="dvX5vBOQwHqYCFOMY8ba-70" value="" style="edgeStyle=orthogonalEdgeStyle;html=1;verticalAlign=bottom;endArrow=open;endSize=8;strokeColor=#ff0000;rounded=0;entryX=0.5;entryY=0;entryDx=0;entryDy=0;" edge="1" source="dvX5vBOQwHqYCFOMY8ba-69" parent="1" target="dvX5vBOQwHqYCFOMY8ba-112">
          <mxGeometry relative="1" as="geometry">
            <mxPoint x="800" y="670" as="targetPoint" />
          </mxGeometry>
        </mxCell>
        <mxCell id="dvX5vBOQwHqYCFOMY8ba-71" value="Is Valid" style="rhombus;whiteSpace=wrap;html=1;fontColor=#000000;fillColor=#ffffc0;strokeColor=#ff0000;" vertex="1" parent="1">
          <mxGeometry x="240" y="670" width="80" height="40" as="geometry" />
        </mxCell>
        <mxCell id="dvX5vBOQwHqYCFOMY8ba-72" value="no" style="edgeStyle=orthogonalEdgeStyle;html=1;align=left;verticalAlign=bottom;endArrow=open;endSize=8;strokeColor=#ff0000;rounded=0;entryX=0.5;entryY=0;entryDx=0;entryDy=0;" edge="1" source="dvX5vBOQwHqYCFOMY8ba-71" parent="1" target="dvX5vBOQwHqYCFOMY8ba-80">
          <mxGeometry x="-0.7516" relative="1" as="geometry">
            <mxPoint x="400" y="690" as="targetPoint" />
            <mxPoint as="offset" />
          </mxGeometry>
        </mxCell>
        <mxCell id="dvX5vBOQwHqYCFOMY8ba-73" value="yes" style="edgeStyle=orthogonalEdgeStyle;html=1;align=left;verticalAlign=top;endArrow=open;endSize=8;strokeColor=#ff0000;rounded=0;exitX=0;exitY=0.5;exitDx=0;exitDy=0;entryX=0.5;entryY=0;entryDx=0;entryDy=0;" edge="1" source="dvX5vBOQwHqYCFOMY8ba-71" parent="1" target="dvX5vBOQwHqYCFOMY8ba-74">
          <mxGeometry x="0.143" y="-20" relative="1" as="geometry">
            <mxPoint x="170" y="690" as="targetPoint" />
            <mxPoint y="-1" as="offset" />
          </mxGeometry>
        </mxCell>
        <mxCell id="dvX5vBOQwHqYCFOMY8ba-74" value="Create account in Firebase Auth" style="rounded=1;whiteSpace=wrap;html=1;arcSize=40;fontColor=#000000;fillColor=#ffffc0;strokeColor=#ff0000;" vertex="1" parent="1">
          <mxGeometry x="80" y="740" width="120" height="40" as="geometry" />
        </mxCell>
        <mxCell id="dvX5vBOQwHqYCFOMY8ba-75" value="" style="edgeStyle=orthogonalEdgeStyle;html=1;verticalAlign=bottom;endArrow=open;endSize=8;strokeColor=#ff0000;rounded=0;entryX=0.5;entryY=0;entryDx=0;entryDy=0;" edge="1" source="dvX5vBOQwHqYCFOMY8ba-74" parent="1" target="dvX5vBOQwHqYCFOMY8ba-76">
          <mxGeometry relative="1" as="geometry">
            <mxPoint x="140" y="840" as="targetPoint" />
          </mxGeometry>
        </mxCell>
        <mxCell id="dvX5vBOQwHqYCFOMY8ba-76" value="Create user profile in Firestore with role &quot;MEMBER&quot;" style="rounded=1;whiteSpace=wrap;html=1;arcSize=40;fontColor=#000000;fillColor=#ffffc0;strokeColor=#ff0000;" vertex="1" parent="1">
          <mxGeometry x="50" y="840" width="180" height="40" as="geometry" />
        </mxCell>
        <mxCell id="dvX5vBOQwHqYCFOMY8ba-77" value="" style="edgeStyle=orthogonalEdgeStyle;html=1;verticalAlign=bottom;endArrow=open;endSize=8;strokeColor=#ff0000;rounded=0;entryX=0.5;entryY=0;entryDx=0;entryDy=0;" edge="1" source="dvX5vBOQwHqYCFOMY8ba-76" parent="1" target="dvX5vBOQwHqYCFOMY8ba-78">
          <mxGeometry relative="1" as="geometry">
            <mxPoint x="140" y="940" as="targetPoint" />
          </mxGeometry>
        </mxCell>
        <mxCell id="dvX5vBOQwHqYCFOMY8ba-78" value="Navigate to Home Page" style="rounded=1;whiteSpace=wrap;html=1;arcSize=40;fontColor=#000000;fillColor=#ffffc0;strokeColor=#ff0000;" vertex="1" parent="1">
          <mxGeometry x="80" y="940" width="120" height="40" as="geometry" />
        </mxCell>
        <mxCell id="dvX5vBOQwHqYCFOMY8ba-79" value="" style="edgeStyle=orthogonalEdgeStyle;html=1;verticalAlign=bottom;endArrow=open;endSize=8;strokeColor=#ff0000;rounded=0;entryX=0;entryY=0.5;entryDx=0;entryDy=0;" edge="1" source="dvX5vBOQwHqYCFOMY8ba-78" parent="1" target="dvX5vBOQwHqYCFOMY8ba-82">
          <mxGeometry relative="1" as="geometry">
            <mxPoint x="140" y="1040" as="targetPoint" />
            <Array as="points">
              <mxPoint x="140" y="1040" />
            </Array>
          </mxGeometry>
        </mxCell>
        <mxCell id="dvX5vBOQwHqYCFOMY8ba-80" value="Show Error" style="rounded=1;whiteSpace=wrap;html=1;arcSize=40;fontColor=#000000;fillColor=#ffffc0;strokeColor=#ff0000;" vertex="1" parent="1">
          <mxGeometry x="360" y="740" width="120" height="40" as="geometry" />
        </mxCell>
        <mxCell id="dvX5vBOQwHqYCFOMY8ba-81" value="" style="edgeStyle=orthogonalEdgeStyle;html=1;verticalAlign=bottom;endArrow=open;endSize=8;strokeColor=#ff0000;rounded=0;entryX=1;entryY=0.5;entryDx=0;entryDy=0;" edge="1" source="dvX5vBOQwHqYCFOMY8ba-80" parent="1" target="dvX5vBOQwHqYCFOMY8ba-82">
          <mxGeometry relative="1" as="geometry">
            <mxPoint x="420" y="1040" as="targetPoint" />
            <Array as="points">
              <mxPoint x="420" y="910" />
              <mxPoint x="421" y="910" />
              <mxPoint x="421" y="1040" />
            </Array>
          </mxGeometry>
        </mxCell>
        <mxCell id="dvX5vBOQwHqYCFOMY8ba-82" value="" style="rhombus;whiteSpace=wrap;html=1;fontColor=#000000;fillColor=#ffffc0;strokeColor=#ff0000;" vertex="1" parent="1">
          <mxGeometry x="240" y="1020" width="80" height="40" as="geometry" />
        </mxCell>
        <mxCell id="dvX5vBOQwHqYCFOMY8ba-84" value="" style="edgeStyle=orthogonalEdgeStyle;html=1;align=left;verticalAlign=top;endArrow=open;endSize=8;strokeColor=#ff0000;rounded=0;entryX=0;entryY=0.5;entryDx=0;entryDy=0;" edge="1" source="dvX5vBOQwHqYCFOMY8ba-82" parent="1" target="dvX5vBOQwHqYCFOMY8ba-125">
          <mxGeometry x="-0.3389" y="100" relative="1" as="geometry">
            <mxPoint x="280" y="1120" as="targetPoint" />
            <Array as="points">
              <mxPoint x="280" y="1120" />
            </Array>
            <mxPoint as="offset" />
          </mxGeometry>
        </mxCell>
        <mxCell id="dvX5vBOQwHqYCFOMY8ba-112" value="Is Valid" style="rhombus;whiteSpace=wrap;html=1;fontColor=#000000;fillColor=#ffffc0;strokeColor=#ff0000;" vertex="1" parent="1">
          <mxGeometry x="760" y="670" width="80" height="40" as="geometry" />
        </mxCell>
        <mxCell id="dvX5vBOQwHqYCFOMY8ba-113" value="no" style="edgeStyle=orthogonalEdgeStyle;html=1;align=left;verticalAlign=bottom;endArrow=open;endSize=8;strokeColor=#ff0000;rounded=0;entryX=0.5;entryY=0;entryDx=0;entryDy=0;" edge="1" source="dvX5vBOQwHqYCFOMY8ba-112" target="dvX5vBOQwHqYCFOMY8ba-121" parent="1">
          <mxGeometry x="-0.7516" relative="1" as="geometry">
            <mxPoint x="920" y="690" as="targetPoint" />
            <mxPoint as="offset" />
          </mxGeometry>
        </mxCell>
        <mxCell id="dvX5vBOQwHqYCFOMY8ba-114" value="yes" style="edgeStyle=orthogonalEdgeStyle;html=1;align=left;verticalAlign=top;endArrow=open;endSize=8;strokeColor=#ff0000;rounded=0;exitX=0;exitY=0.5;exitDx=0;exitDy=0;entryX=0.5;entryY=0;entryDx=0;entryDy=0;" edge="1" source="dvX5vBOQwHqYCFOMY8ba-112" target="dvX5vBOQwHqYCFOMY8ba-115" parent="1">
          <mxGeometry x="0.143" y="-20" relative="1" as="geometry">
            <mxPoint x="690" y="690" as="targetPoint" />
            <mxPoint y="-1" as="offset" />
          </mxGeometry>
        </mxCell>
        <mxCell id="dvX5vBOQwHqYCFOMY8ba-115" value="Authenticate with Firebase Auth" style="rounded=1;whiteSpace=wrap;html=1;arcSize=40;fontColor=#000000;fillColor=#ffffc0;strokeColor=#ff0000;" vertex="1" parent="1">
          <mxGeometry x="600" y="740" width="120" height="40" as="geometry" />
        </mxCell>
        <mxCell id="dvX5vBOQwHqYCFOMY8ba-116" value="" style="edgeStyle=orthogonalEdgeStyle;html=1;verticalAlign=bottom;endArrow=open;endSize=8;strokeColor=#ff0000;rounded=0;entryX=0.5;entryY=0;entryDx=0;entryDy=0;" edge="1" source="dvX5vBOQwHqYCFOMY8ba-115" target="dvX5vBOQwHqYCFOMY8ba-117" parent="1">
          <mxGeometry relative="1" as="geometry">
            <mxPoint x="660" y="840" as="targetPoint" />
          </mxGeometry>
        </mxCell>
        <mxCell id="dvX5vBOQwHqYCFOMY8ba-117" value="Load user profile from Firestore" style="rounded=1;whiteSpace=wrap;html=1;arcSize=40;fontColor=#000000;fillColor=#ffffc0;strokeColor=#ff0000;" vertex="1" parent="1">
          <mxGeometry x="570" y="840" width="180" height="40" as="geometry" />
        </mxCell>
        <mxCell id="dvX5vBOQwHqYCFOMY8ba-118" value="" style="edgeStyle=orthogonalEdgeStyle;html=1;verticalAlign=bottom;endArrow=open;endSize=8;strokeColor=#ff0000;rounded=0;entryX=0.5;entryY=0;entryDx=0;entryDy=0;" edge="1" source="dvX5vBOQwHqYCFOMY8ba-117" target="dvX5vBOQwHqYCFOMY8ba-119" parent="1">
          <mxGeometry relative="1" as="geometry">
            <mxPoint x="660" y="940" as="targetPoint" />
          </mxGeometry>
        </mxCell>
        <mxCell id="dvX5vBOQwHqYCFOMY8ba-119" value="Navigate to Home Page" style="rounded=1;whiteSpace=wrap;html=1;arcSize=40;fontColor=#000000;fillColor=#ffffc0;strokeColor=#ff0000;" vertex="1" parent="1">
          <mxGeometry x="600" y="940" width="120" height="40" as="geometry" />
        </mxCell>
        <mxCell id="dvX5vBOQwHqYCFOMY8ba-120" value="" style="edgeStyle=orthogonalEdgeStyle;html=1;verticalAlign=bottom;endArrow=open;endSize=8;strokeColor=#ff0000;rounded=0;entryX=0;entryY=0.5;entryDx=0;entryDy=0;" edge="1" source="dvX5vBOQwHqYCFOMY8ba-119" target="dvX5vBOQwHqYCFOMY8ba-123" parent="1">
          <mxGeometry relative="1" as="geometry">
            <mxPoint x="660" y="1040" as="targetPoint" />
            <Array as="points">
              <mxPoint x="660" y="1040" />
            </Array>
          </mxGeometry>
        </mxCell>
        <mxCell id="dvX5vBOQwHqYCFOMY8ba-121" value="Show Error" style="rounded=1;whiteSpace=wrap;html=1;arcSize=40;fontColor=#000000;fillColor=#ffffc0;strokeColor=#ff0000;" vertex="1" parent="1">
          <mxGeometry x="880" y="740" width="120" height="40" as="geometry" />
        </mxCell>
        <mxCell id="dvX5vBOQwHqYCFOMY8ba-122" value="" style="edgeStyle=orthogonalEdgeStyle;html=1;verticalAlign=bottom;endArrow=open;endSize=8;strokeColor=#ff0000;rounded=0;entryX=1;entryY=0.5;entryDx=0;entryDy=0;" edge="1" source="dvX5vBOQwHqYCFOMY8ba-121" target="dvX5vBOQwHqYCFOMY8ba-123" parent="1">
          <mxGeometry relative="1" as="geometry">
            <mxPoint x="940" y="1040" as="targetPoint" />
            <Array as="points">
              <mxPoint x="940" y="910" />
              <mxPoint x="941" y="910" />
              <mxPoint x="941" y="1040" />
            </Array>
          </mxGeometry>
        </mxCell>
        <mxCell id="dvX5vBOQwHqYCFOMY8ba-123" value="" style="rhombus;whiteSpace=wrap;html=1;fontColor=#000000;fillColor=#ffffc0;strokeColor=#ff0000;" vertex="1" parent="1">
          <mxGeometry x="760" y="1020" width="80" height="40" as="geometry" />
        </mxCell>
        <mxCell id="dvX5vBOQwHqYCFOMY8ba-124" value="" style="edgeStyle=orthogonalEdgeStyle;html=1;align=left;verticalAlign=top;endArrow=open;endSize=8;strokeColor=#ff0000;rounded=0;entryX=1;entryY=0.5;entryDx=0;entryDy=0;" edge="1" source="dvX5vBOQwHqYCFOMY8ba-123" parent="1" target="dvX5vBOQwHqYCFOMY8ba-125">
          <mxGeometry x="-0.3389" y="100" relative="1" as="geometry">
            <mxPoint x="800" y="1120" as="targetPoint" />
            <Array as="points">
              <mxPoint x="800" y="1120" />
            </Array>
            <mxPoint as="offset" />
          </mxGeometry>
        </mxCell>
        <mxCell id="dvX5vBOQwHqYCFOMY8ba-125" value="" style="rhombus;whiteSpace=wrap;html=1;fontColor=#000000;fillColor=#ffffc0;strokeColor=#ff0000;" vertex="1" parent="1">
          <mxGeometry x="495" y="1100" width="80" height="40" as="geometry" />
        </mxCell>
        <mxCell id="dvX5vBOQwHqYCFOMY8ba-126" value="" style="html=1;align=left;verticalAlign=top;endArrow=open;endSize=8;strokeColor=#ff0000;rounded=0;entryX=0.5;entryY=0;entryDx=0;entryDy=0;" edge="1" source="dvX5vBOQwHqYCFOMY8ba-125" parent="1" target="dvX5vBOQwHqYCFOMY8ba-127">
          <mxGeometry x="-0.3389" y="100" relative="1" as="geometry">
            <mxPoint x="530" y="1200" as="targetPoint" />
            <mxPoint as="offset" />
          </mxGeometry>
        </mxCell>
        <mxCell id="dvX5vBOQwHqYCFOMY8ba-127" value="" style="ellipse;html=1;shape=endState;fillColor=#000000;strokeColor=#ff0000;" vertex="1" parent="1">
          <mxGeometry x="520" y="1209" width="30" height="30" as="geometry" />
        </mxCell>
        <mxCell id="dvX5vBOQwHqYCFOMY8ba-128" value="&lt;font style=&quot;font-size: 20px;&quot;&gt;Activity Diagram – User Registration and Login&lt;/font&gt;" style="text;align=center;fontStyle=1;verticalAlign=middle;spacingLeft=3;spacingRight=3;strokeColor=none;rotatable=0;points=[[0,0.5],[1,0.5]];portConstraint=eastwest;html=1;" vertex="1" parent="1">
          <mxGeometry x="20" y="30" width="460" height="40" as="geometry" />
        </mxCell>
      </root>
    </mxGraphModel>
  </diagram>
</mxfile>
